<?xml version="1.0" encoding="UTF-8" standalone="no"?>
<svg width="639px" height="38px" viewBox="0 0 639 38" version="1.1" xmlns="http://www.w3.org/2000/svg" xmlns:xlink="http://www.w3.org/1999/xlink" xmlns:sketch="http://www.bohemiancoding.com/sketch/ns">
    <!-- Generator: Sketch 3.4.4 (17249) - http://www.bohemiancoding.com/sketch -->
    <title>Group Copy</title>
    <desc>Created with Sketch.</desc>
    <defs></defs>
    <g id="Page-1" stroke="none" stroke-width="1" fill="none" fill-rule="evenodd" sketch:type="MSPage">
        <g id="Group-Copy" sketch:type="MSLayerGroup">
            <path d="M277.819287,28.348 C283.039287,28.348 285.301287,25.593 285.301287,22.374 C285.301287,15.153 274.049287,17.386 274.049287,13.79 C274.049287,12.34 275.325287,11.383 277.326287,11.383 C279.356287,11.383 281.415287,12.079 282.923287,13.587 L284.866287,11.064 C283.068287,9.324 280.632287,8.367 277.616287,8.367 C273.382287,8.367 270.569287,10.832 270.569287,14.022 C270.569287,21.156 281.850287,18.633 281.850287,22.693 C281.850287,23.969 280.748287,25.332 277.964287,25.332 C275.267287,25.332 273.179287,24.085 271.845287,22.664 L269.960287,25.274 C271.671287,27.101 274.252287,28.348 277.819287,28.348 L277.819287,28.348 Z M295.476144,28.348 C297.709144,28.348 299.768144,27.652 301.160144,26.318 L299.768144,24.317 C298.782144,25.303 297.158144,25.854 295.795144,25.854 C293.156144,25.854 291.561144,24.114 291.329144,21.997 L302.146144,21.997 L302.146144,21.272 C302.146144,16.864 299.449144,13.645 295.244144,13.645 C291.097144,13.645 288.139144,16.922 288.139144,20.982 C288.139144,25.419 291.271144,28.348 295.476144,28.348 L295.476144,28.348 Z M299.188144,19.851 L291.300144,19.851 C291.445144,18.14 292.634144,16.139 295.244144,16.139 C297.999144,16.139 299.130144,18.198 299.188144,19.851 L299.188144,19.851 Z M318.324001,28 L318.324001,18.14 C318.324001,15.269 316.816001,13.645 313.800001,13.645 C311.596001,13.645 309.798001,14.805 308.870001,15.907 L308.870001,13.993 L305.825001,13.993 L305.825001,28 L308.870001,28 L308.870001,18.227 C309.566001,17.27 310.900001,16.342 312.466001,16.342 C314.177001,16.342 315.279001,17.067 315.279001,19.242 L315.279001,28 L318.324001,28 Z M327.135858,28.348 C328.556858,28.348 329.455858,27.971 330.006858,27.449 L329.281858,25.158 C329.049858,25.419 328.498858,25.651 327.918858,25.651 C327.048858,25.651 326.584858,24.955 326.584858,23.998 L326.584858,16.661 L329.426858,16.661 L329.426858,13.993 L326.584858,13.993 L326.584858,10.165 L323.539858,10.165 L323.539858,13.993 L321.219858,13.993 L321.219858,16.661 L323.539858,16.661 L323.539858,24.752 C323.539858,27.072 324.786858,28.348 327.135858,28.348 L327.135858,28.348 Z M534.56043,28 L529.83343,20.402 C532.15343,20.025 534.41543,18.169 534.41543,14.718 C534.41543,11.151 531.92143,8.657 528.09343,8.657 L519.59643,8.657 L519.59643,28 L522.98943,28 L522.98943,20.779 L526.35343,20.779 L530.64543,28 L534.56043,28 Z M527.62943,17.792 L522.98943,17.792 L522.98943,11.644 L527.62943,11.644 C529.54343,11.644 530.93543,12.862 530.93543,14.718 C530.93543,16.574 529.54343,17.792 527.62943,17.792 L527.62943,17.792 Z M543.981287,28.348 C546.214287,28.348 548.273287,27.652 549.665287,26.318 L548.273287,24.317 C547.287287,25.303 545.663287,25.854 544.300287,25.854 C541.661287,25.854 540.066287,24.114 539.834287,21.997 L550.651287,21.997 L550.651287,21.272 C550.651287,16.864 547.954287,13.645 543.749287,13.645 C539.602287,13.645 536.644287,16.922 536.644287,20.982 C536.644287,25.419 539.776287,28.348 543.981287,28.348 L543.981287,28.348 Z M547.693287,19.851 L539.805287,19.851 C539.950287,18.14 541.139287,16.139 543.749287,16.139 C546.504287,16.139 547.635287,18.198 547.693287,19.851 L547.693287,19.851 Z M560.710145,28.348 C563.436145,28.348 565.089145,27.188 566.075145,25.854 L564.074145,23.998 C563.291145,25.071 562.218145,25.651 560.855145,25.651 C558.303145,25.651 556.621145,23.708 556.621145,20.982 C556.621145,18.256 558.303145,16.342 560.855145,16.342 C562.218145,16.342 563.291145,16.893 564.074145,17.995 L566.075145,16.139 C565.089145,14.805 563.436145,13.645 560.710145,13.645 C556.447145,13.645 553.460145,16.748 553.460145,20.982 C553.460145,25.245 556.447145,28.348 560.710145,28.348 L560.710145,28.348 Z M570.914002,12.282 C571.958002,12.282 572.799002,11.441 572.799002,10.397 C572.799002,9.353 571.958002,8.512 570.914002,8.512 C569.899002,8.512 569.029002,9.353 569.029002,10.397 C569.029002,11.441 569.899002,12.282 570.914002,12.282 L570.914002,12.282 Z M572.451002,28 L572.451002,13.993 L569.406002,13.993 L569.406002,28 L572.451002,28 Z M583.524859,28.348 C585.757859,28.348 587.816859,27.652 589.208859,26.318 L587.816859,24.317 C586.830859,25.303 585.206859,25.854 583.843859,25.854 C581.204859,25.854 579.609859,24.114 579.377859,21.997 L590.194859,21.997 L590.194859,21.272 C590.194859,16.864 587.497859,13.645 583.292859,13.645 C579.145859,13.645 576.187859,16.922 576.187859,20.982 C576.187859,25.419 579.319859,28.348 583.524859,28.348 L583.524859,28.348 Z M587.236859,19.851 L579.348859,19.851 C579.493859,18.14 580.682859,16.139 583.292859,16.139 C586.047859,16.139 587.178859,18.198 587.236859,19.851 L587.236859,19.851 Z M600.833716,28 L606.546716,13.993 L603.269716,13.993 L599.180716,24.491 L595.091716,13.993 L591.843716,13.993 L597.556716,28 L600.833716,28 Z M615.590573,28.348 C617.823573,28.348 619.882573,27.652 621.274573,26.318 L619.882573,24.317 C618.896573,25.303 617.272573,25.854 615.909573,25.854 C613.270573,25.854 611.675573,24.114 611.443573,21.997 L622.260573,21.997 L622.260573,21.272 C622.260573,16.864 619.563573,13.645 615.358573,13.645 C611.211573,13.645 608.253573,16.922 608.253573,20.982 C608.253573,25.419 611.385573,28.348 615.590573,28.348 L615.590573,28.348 Z M619.302573,19.851 L611.414573,19.851 C611.559573,18.14 612.748573,16.139 615.358573,16.139 C618.113573,16.139 619.244573,18.198 619.302573,19.851 L619.302573,19.851 Z M638.84443,28 L638.84443,8.657 L635.79943,8.657 L635.79943,15.936 C634.66843,14.457 633.04443,13.645 631.30443,13.645 C627.67943,13.645 625.06943,16.487 625.06943,21.011 C625.06943,25.622 627.70843,28.348 631.30443,28.348 C633.10243,28.348 634.72643,27.478 635.79943,26.086 L635.79943,28 L638.84443,28 Z M632.17443,25.651 C629.76743,25.651 628.23043,23.708 628.23043,21.011 C628.23043,18.285 629.76743,16.342 632.17443,16.342 C633.62443,16.342 635.10343,17.183 635.79943,18.227 L635.79943,23.795 C635.10343,24.839 633.62443,25.651 632.17443,25.651 L632.17443,25.651 Z" id="All-----------------" fill="#B2BFC9" sketch:type="MSShapeGroup"></path>
            <path d="M66.459,28 L58.861,8.657 L54.627,8.657 L47.029,28 L50.886,28 L52.307,24.288 L61.181,24.288 L62.602,28 L66.459,28 Z M60.224,21.301 L53.264,21.301 L56.744,12.079 L60.224,21.301 Z M72.1968572,28 L72.1968572,8.657 L69.1518572,8.657 L69.1518572,28 L72.1968572,28 Z M79.8487143,28 L79.8487143,8.657 L76.8037143,8.657 L76.8037143,28 L79.8487143,28 Z" id="All------------------Copy" fill="#3F3F3F" sketch:type="MSShapeGroup"></path>
            <g id="icon_give-copy-3" transform="translate(223.000000, 0.000000)" sketch:type="MSShapeGroup">
                <rect id="Rectangle-401" fill="#B2BFC9" x="0" y="0" width="38" height="38" rx="5"></rect>
                <path d="M24.5416667,13.4583333 L12.6666667,25.3333333" id="Line" stroke="#ECF4FA" stroke-width="2" stroke-linecap="square"></path>
                <path d="M25.3333333,12.6666667 L14.25,12.6666667" id="Line" stroke="#ECF4FA" stroke-width="2" stroke-linecap="square"></path>
                <path d="M25.3333333,23.75 L25.3333333,12.6666667" id="Line-Copy-3" stroke="#ECF4FA" stroke-width="2" stroke-linecap="square"></path>
            </g>
            <g id="icon_give-copy-4" transform="translate(491.000000, 19.000000) rotate(-270.000000) translate(-491.000000, -19.000000) translate(472.000000, 0.000000)" sketch:type="MSShapeGroup">
                <rect id="Rectangle-401" fill="#B2BFC9" x="0" y="0" width="38" height="38" rx="5"></rect>
                <path d="M24.5416667,13.4583333 L12.6666667,25.3333333" id="Line" stroke="#ECF4FA" stroke-width="2" stroke-linecap="square"></path>
                <path d="M25.3333333,12.6666667 L14.25,12.6666667" id="Line" stroke="#ECF4FA" stroke-width="2" stroke-linecap="square"></path>
                <path d="M25.3333333,23.75 L25.3333333,12.6666667" id="Line-Copy-3" stroke="#ECF4FA" stroke-width="2" stroke-linecap="square"></path>
            </g>
            <g id="icon_give-copy-5" sketch:type="MSShapeGroup">
                <rect id="Rectangle-401" fill="#3F3F3F" x="0" y="0" width="38" height="38" rx="5"></rect>
                <g id="A" transform="translate(10.482759, 9.172414)">
                    <path d="M7.86206897,1.31034483 L0,18.3448276 L7.86206897,1.31034483 Z" id="Line" stroke="#ECF4FA" stroke-width="2" stroke-linecap="square"></path>
                    <path d="M9.17241379,2.62068966 L6.55172414,2.62068966 L6.55172414,0.655172414 L9.17241379,0.655172414 L9.17241379,2.62068966 L9.17241379,2.62068966 Z" id="Rectangle-59" fill="#ECF4FA"></path>
                    <path d="M15.7241379,1.31034483 L7.86206897,18.3448276 L15.7241379,1.31034483 Z" id="Line-Copy-5" stroke="#ECF4FA" stroke-width="2" stroke-linecap="square" transform="translate(11.793103, 9.827586) scale(-1, 1) translate(-11.793103, -9.827586) "></path>
                    <path d="M12.0954907,12.2610837 L3.62864721,12.2610837" id="Line" stroke="#ECF4FA" stroke-width="2" stroke-linecap="square"></path>
                </g>
            </g>
        </g>
    </g>
</svg>