<?xml version="1.0" encoding="UTF-8" standalone="no"?>
<svg width="155px" height="92px" viewBox="0 0 155 92" version="1.1" xmlns="http://www.w3.org/2000/svg" xmlns:xlink="http://www.w3.org/1999/xlink" xmlns:sketch="http://www.bohemiancoding.com/sketch/ns">
    <!-- Generator: Sketch 3.4.4 (17249) - http://www.bohemiancoding.com/sketch -->
    <title>Page 1 Copy</title>
    <desc>Created with Sketch.</desc>
    <defs>
        <path id="path-1" d="M0,0.37 L154.03,0.37 L154.03,92 L0,92"></path>
    </defs>
    <g id="Page-1" stroke="none" stroke-width="1" fill="none" fill-rule="evenodd" sketch:type="MSPage">
        <g id="Page-1-Copy" sketch:type="MSLayerGroup">
            <path d="M136.8927,75.209 C126.0857,75.209 115.7437,71.2 107.7677,63.921 L111.8127,59.489 C118.6797,65.757 127.5867,69.209 136.8927,69.209 L136.8927,75.209 Z" id="Fill-1" fill="#3F3F3F" sketch:type="MSShapeGroup"></path>
            <g id="Group-5">
                <mask id="mask-2" sketch:name="Clip 4" fill="white">
                    <use xlink:href="#path-1"></use>
                </mask>
                <g id="Clip-4"></g>
                <path d="M104.5283,86 C84.6753,86 68.4033,70.373 67.3653,50.773 C72.8073,48.578 89.1933,42.186 105.2653,38.109 C123.0293,33.602 134.1973,35.222 141.3423,43.331 C141.6043,45.111 141.7453,46.93 141.7453,48.782 C141.7453,69.304 125.0493,86 104.5283,86 M104.5283,11.565 C108.7313,11.565 112.7683,12.276 116.5393,13.566 C112.5923,15.372 108.5243,17.8 104.3643,20.883 C95.4263,27.505 88.7603,35.003 86.8133,37.286 C78.8203,39.915 71.8663,42.546 67.6003,44.223 C69.8563,25.846 85.5513,11.565 104.5283,11.565 M153.7283,23.775 C152.6733,18.688 149.0173,14.718 142.8633,11.972 C137.4293,9.546 131.3613,9.123 124.8443,10.652 C118.7833,7.41 111.8683,5.565 104.5283,5.565 C80.6983,5.565 61.3103,24.952 61.3103,48.782 C61.3103,72.612 80.6983,92 104.5283,92 C128.3583,92 147.7453,72.612 147.7453,48.782 C147.7453,46.784 147.5973,44.821 147.3333,42.894 C149.6833,39.968 155.4013,31.836 153.7283,23.775" id="Fill-3" fill="#3F3F3F" sketch:type="MSShapeGroup" mask="url(#mask-2)"></path>
            </g>
            <path d="M15.8672,27.1943 L53.2202,27.1943 C54.8772,27.1943 56.2202,25.8513 56.2202,24.1943 C56.2202,22.5373 54.8772,21.1943 53.2202,21.1943 L15.8672,21.1943 C14.2102,21.1943 12.8672,22.5373 12.8672,24.1943 C12.8672,25.8513 14.2102,27.1943 15.8672,27.1943" id="Fill-6" fill="#3F3F3F" sketch:type="MSShapeGroup"></path>
            <path d="M57.2607,74.4609 L32.6347,74.4609 C30.9777,74.4609 29.6347,75.8039 29.6347,77.4609 C29.6347,79.1179 30.9777,80.4609 32.6347,80.4609 L57.2607,80.4609 C58.9177,80.4609 60.2607,79.1179 60.2607,77.4609 C60.2607,75.8039 58.9177,74.4609 57.2607,74.4609" id="Fill-8" fill="#3F3F3F" sketch:type="MSShapeGroup"></path>
            <path d="M49.4941,38.0947 C49.4941,36.4377 48.1511,35.0947 46.4941,35.0947 L27.6401,35.0947 C25.9821,35.0947 24.6401,36.4377 24.6401,38.0947 C24.6401,39.7517 25.9821,41.0947 27.6401,41.0947 L46.4941,41.0947 C48.1511,41.0947 49.4941,39.7517 49.4941,38.0947" id="Fill-10" fill="#3F3F3F" sketch:type="MSShapeGroup"></path>
            <path d="M13.834,35.0947 L3,35.0947 C1.343,35.0947 0,36.4377 0,38.0947 C0,39.7517 1.343,41.0947 3,41.0947 L13.834,41.0947 C15.491,41.0947 16.834,39.7517 16.834,38.0947 C16.834,36.4377 15.491,35.0947 13.834,35.0947" id="Fill-12" fill="#3F3F3F" sketch:type="MSShapeGroup"></path>
            <path d="M111.3497,5.5654 C111.3497,2.6964 108.2957,0.3704 104.5287,0.3704 C100.7607,0.3704 97.7067,2.6964 97.7067,5.5654 C97.7067,8.4344 100.7607,10.7604 104.5287,10.7604 C108.2957,10.7604 111.3497,8.4344 111.3497,5.5654" id="Fill-14" fill="#3F3F3F" sketch:type="MSShapeGroup"></path>
        </g>
    </g>
</svg>